<?xml version="1.0" standalone="no"?>
<!DOCTYPE svg PUBLIC "-//W3C//DTD SVG 20010904//EN"
 "http://www.w3.org/TR/2001/REC-SVG-20010904/DTD/svg10.dtd">
<svg version="1.0" xmlns="http://www.w3.org/2000/svg"
 width="317.000000pt" height="317.000000pt" viewBox="0 0 317.000000 317.000000"
 preserveAspectRatio="xMidYMid meet">
<metadata>
Created by potrace 1.11, written by Peter Selinger 2001-2013
</metadata>
<g transform="translate(0.000000,317.000000) scale(0.100000,-0.100000)"
fill="#000000" stroke="none">
<path d="M1490 2140 c-81 -12 -134 -47 -146 -95 -11 -43 13 -79 74 -115 31
-18 72 -42 90 -53 35 -20 39 -29 20 -45 -22 -17 -71 -20 -123 -7 -27 7 -52 11
-54 9 -3 -2 -5 -26 -5 -51 l-1 -47 45 -9 c66 -12 191 -2 235 19 72 34 93 118
43 171 -12 14 -54 40 -91 59 -60 31 -88 56 -75 69 12 12 71 13 110 1 l44 -13
16 43 c15 43 15 43 -11 53 -34 14 -114 19 -171 11z"/>
<path d="M1813 2110 c-34 -17 -45 -30 -54 -61 -11 -35 -10 -41 13 -71 14 -18
57 -53 96 -78 73 -45 90 -66 72 -84 -13 -13 -80 -9 -131 10 -23 8 -43 13 -45
11 -2 -1 -6 -22 -10 -45 -6 -41 -6 -42 32 -58 44 -19 175 -30 228 -20 19 4 49
20 66 37 57 58 32 133 -65 190 -82 49 -110 73 -100 89 10 15 80 9 122 -12 l29
-15 16 45 16 44 -36 15 c-21 9 -75 18 -122 20 -73 4 -91 1 -127 -17z"/>
<path d="M955 2094 c-111 -27 -186 -87 -215 -174 -31 -91 -9 -189 50 -223 62
-37 235 -29 343 17 50 21 114 82 127 122 31 93 10 193 -51 237 -52 38 -150 46
-254 21z m133 -103 c39 -21 47 -112 13 -160 -49 -68 -196 -75 -216 -10 -12 38
-7 97 11 124 36 54 133 78 192 46z"/>
<path d="M2196 2082 c14 -31 17 -361 3 -378 -15 -19 -12 -21 36 -26 22 -3 93
-18 157 -33 75 -19 121 -26 127 -20 5 6 12 26 16 45 l6 36 -88 20 -88 20 -3
38 -3 38 38 -6 c21 -4 48 -10 59 -12 20 -5 22 -2 20 37 -1 47 3 43 -86 68 -14
3 -26 15 -28 25 -7 33 12 39 78 22 34 -9 64 -16 66 -16 10 0 3 79 -9 88 -7 6
-71 22 -142 36 -72 14 -138 28 -148 30 -14 4 -17 1 -11 -12z"/>
<path d="M462 1965 c-30 -14 -58 -23 -62 -20 -5 3 -38 -8 -75 -25 -58 -26 -64
-32 -56 -49 12 -21 12 -322 0 -363 -7 -27 -1 -36 15 -21 3 4 12 8 19 9 7 1 53
17 102 34 179 64 235 107 255 197 6 26 3 37 -14 56 -12 13 -28 26 -36 29 -10
3 -9 11 8 34 32 45 33 93 2 124 -28 28 -92 26 -158 -5z m53 -96 c8 -26 -7 -43
-56 -63 l-37 -15 -4 31 c-6 39 20 68 61 68 21 0 32 -6 36 -21z m3 -146 c6 -10
6 -27 2 -38 -8 -22 -83 -69 -94 -58 -3 3 -6 26 -6 50 0 36 4 45 23 53 36 14
66 11 75 -7z"/>
<path d="M2653 1955 c-36 -15 -49 -48 -39 -92 4 -17 43 -62 96 -114 93 -89
110 -119 65 -119 -27 0 -119 43 -130 60 -15 24 -33 8 -37 -32 -5 -52 10 -67
108 -108 138 -57 212 -60 237 -7 27 55 5 108 -74 182 -29 28 -67 64 -84 80
-33 31 -36 55 -6 55 9 0 41 -16 71 -35 30 -19 58 -35 62 -35 3 0 12 16 18 36
12 34 11 38 -11 55 -35 27 -107 60 -164 75 -62 17 -72 17 -112 -1z"/>
<path d="M1148 1509 c-12 -6 -18 -22 -18 -44 0 -19 -4 -35 -8 -35 -5 0 -14
-11 -20 -24 -10 -22 -8 -26 9 -31 18 -6 20 -14 17 -61 -2 -31 1 -54 7 -55 6
-1 26 -2 45 -3 l35 -1 -2 58 c-1 47 2 59 18 67 26 14 25 50 -1 50 -34 0 -21
45 15 51 11 3 20 11 20 19 0 18 -91 26 -117 9z"/>
<path d="M1450 1514 c-12 -4 -15 -27 -15 -129 0 -69 2 -125 5 -126 3 0 23 -1
45 -2 38 -2 40 0 37 26 -4 35 10 34 48 -3 36 -35 34 -35 71 -13 29 17 38 33
19 33 -13 0 -80 43 -80 52 0 4 8 9 18 13 9 3 25 12 36 20 17 13 17 15 3 29
-22 23 -48 20 -79 -9 -15 -14 -31 -25 -36 -25 -4 0 -8 30 -8 68 1 65 0 67 -24
69 -14 0 -32 -1 -40 -3z"/>
<path d="M1938 1513 c-14 -3 -16 -21 -16 -129 1 -83 4 -124 12 -125 61 -7 80
-3 69 14 -10 17 -12 57 -2 57 5 0 24 -18 44 -39 38 -41 46 -43 83 -23 30 17
28 23 -18 50 -22 12 -40 26 -40 31 0 4 16 16 35 27 40 21 41 22 18 40 -27 20
-48 17 -81 -11 -17 -14 -33 -25 -36 -25 -3 0 -6 32 -6 70 0 75 -4 79 -62 63z"/>
<path d="M2452 1510 c-4 -3 -8 -61 -7 -129 l0 -125 41 0 41 -1 1 133 1 133
-35 -3 c-19 -1 -38 -5 -42 -8z"/>
<path d="M396 1490 c-7 -8 -16 -23 -19 -32 -5 -15 1 -17 51 -15 l57 2 1 -75
c0 -41 -3 -83 -8 -92 -7 -14 -4 -18 9 -19 25 -2 76 -2 88 0 6 0 9 37 7 94 l-3
93 42 -1 c44 -1 69 15 69 44 0 15 -14 17 -141 16 -112 0 -143 -3 -153 -15z"/>
<path d="M1302 1501 c-25 -15 -9 -46 25 -49 25 -3 33 1 38 19 11 32 -30 51
-63 30z"/>
<path d="M936 1428 c-47 -7 -70 -22 -62 -43 2 -5 9 -9 15 -7 81 18 124 3 46
-17 -93 -23 -93 -112 0 -106 17 1 36 5 43 9 7 4 12 3 12 -3 0 -10 22 -8 61 4
14 5 17 11 10 23 -5 9 -8 36 -7 60 4 75 -25 94 -118 80z m40 -109 c10 -17 -13
-36 -27 -22 -12 12 -4 33 11 33 5 0 12 -5 16 -11z"/>
<path d="M1745 1424 c-22 -7 -41 -14 -42 -14 -2 0 -3 -11 -3 -23 0 -30 27 -55
68 -63 31 -6 41 -17 24 -27 -4 -3 -23 1 -44 7 -34 12 -37 12 -46 -9 -9 -19 -7
-24 11 -32 25 -11 90 -11 125 1 27 9 43 44 31 68 -5 9 -29 24 -54 34 -29 11
-42 20 -34 25 13 7 31 6 60 -6 10 -4 19 0 23 11 8 22 2 27 -34 30 -15 1 -32 4
-37 7 -4 3 -26 -1 -48 -9z"/>
<path d="M2225 1424 c-20 -7 -38 -14 -39 -16 -13 -15 -23 -47 -21 -68 1 -14 3
-31 4 -37 2 -22 48 -44 99 -48 52 -4 95 12 118 42 17 24 10 82 -14 106 -27 26
-101 37 -147 21z m83 -80 c3 -35 -18 -51 -46 -35 -35 20 -18 75 22 69 15 -2
22 -11 24 -34z"/>
<path d="M2624 1425 c-30 -9 -38 -15 -36 -31 5 -26 7 -27 30 -15 12 6 33 11
47 11 40 0 25 -24 -18 -31 -65 -10 -91 -56 -52 -89 20 -16 63 -22 84 -11 11 6
22 6 27 1 5 -5 22 -6 39 -2 28 8 29 9 26 73 -2 45 -7 69 -20 82 -21 22 -75 27
-127 12z m69 -109 c7 -17 -22 -31 -36 -17 -5 5 -6 14 -3 20 10 16 33 14 39 -3z"/>
<path d="M692 1422 c-6 -2 -9 -9 -6 -15 8 -23 10 -82 3 -114 -4 -18 -3 -33 2
-34 5 -1 26 -2 46 -2 l38 -1 0 54 c0 50 2 55 23 58 19 3 42 34 42 57 0 4 -134
2 -148 -3z"/>
<path d="M1305 1423 c-6 -5 -11 -44 -12 -88 l-1 -80 43 0 42 0 -2 85 -1 85
-30 3 c-16 1 -34 -1 -39 -5z"/>
<path d="M1123 1122 c-9 -9 -10 -19 -4 -30 8 -16 49 -17 473 -17 l463 0 0 29
0 30 -459 0 c-368 1 -462 -2 -473 -12z"/>
</g>
</svg>
